# xmcd
#
# Track frame offsets:
#	150
#	10718
#	21237
#	34223
#	48633
#	69450
#	83375
#	111016
#	126710
#	143569
#	169881
#	180259
#	197587
#	216897
#	228655
#	238240
#
# Disc length: 3252 seconds
#
# Revision: 1
# Processed by: cddbd v1.5.2PL0 Copyright (c) Steve Scherf et al.
# Submitted via: audiograbber 1.83.01
#
DISCID=db0cb210
DTITLE=Various Artist - Musikus 70
DYEAR=1900
DGENRE=
TTITLE0=itsie bitsie teenie...
TTITLE1=yummie, yummie
TTITLE2=que sera, que sera
TTITLE3=born to be alive
TTITLE4=ma baker
TTITLE5=warum ist es ....
TTITLE6=super-song
TTITLE7=drei weisse tauben
TTITLE8=ausziehn ausziehn 
TTITLE9=kanzler-song
TTITLE10=beliebt wie fusspilz
TTITLE11=nachtblind
TTITLE12=jenseits vom tresen
TTITLE13=verdammt ich schieb dich
TTITLE14=gwb bananaboat song  
TTITLE15=don´t youTrack 16
EXTD=
EXTT0=
EXTT1=
EXTT2=
EXTT3=
EXTT4=
EXTT5=
EXTT6=
EXTT7=
EXTT8=
EXTT9=
EXTT10=
EXTT11=
EXTT12=
EXTT13=
EXTT14=
EXTT15=
PLAYORDER=
